<?xml version="1.0" encoding="UTF-8"?>
<svg id="Layer_1" data-name="Layer 1" xmlns="http://www.w3.org/2000/svg" viewBox="0 0 648.72 774.44">
  <defs>
    <style>
      .cls-1 {
        fill: #f4c777;
      }

      .cls-2 {
        fill: #fcfdfc;
      }

      .cls-3 {
        fill: #e6e3e0;
      }

      .cls-4 {
        fill: #e8bb63;
      }

      .cls-5 {
        fill: #8b8484;
      }

      .cls-6 {
        fill: #969696;
      }

      .cls-7 {
        fill: #969796;
      }

      .cls-8 {
        fill: #959595;
      }

      .cls-9 {
        fill: #e6b266;
      }

      .cls-10 {
        fill: #e59045;
      }

      .cls-11 {
        fill: #e3b774;
      }

      .cls-12 {
        fill: #e8b163;
      }
    </style>
  </defs>
  <path class="cls-11" d="M303.53,625.69c-.17-.77-.78-1.42-1.26-2V88.03c.01-3.17,1.76-4.97,1-7.34h1v543.63c0,1.11-.23,1.53-.74,1.37Z"/>
  <g>
    <path class="cls-12" d="M247.42,47.65c-.08,5.2.65,10.13-1.37,14.64-1.16,2.6-4.89,3.22-7.5,3.48l-24.45,2.43c-16.58,1.65-28.95,14.23-34.39,29.46l-71.09.25c-18.88.07-32.24,14.76-35.05,33.27l.27,440.33c.01,19.61,17.54,35.83,36.8,35.84l276.06.1c5.74,0,11.2.81,17.76-.25l125.11-125.14c2.16-2.16,2.68-3.95,2.68-6.22l.09-339.94c0-22.02-17.3-38.31-38.89-38.28l-67.9.09c-6.35-18.9-23.31-30.1-42.84-30.57-6.66-.16-13.05-.74-19.56-1.98-7.03-1.34-3.93-8.36-5.41-17.5l180.49-.27c27.22-.04,45.48,18.99,45.48,45.52l.05,520.66c0,22.39-14.79,45.82-39.49,45.83l-481.59.23c-20.07,0-35.92-15.8-39.89-33.92.51.16.74-.26.74-1.37V80.69c0-14.31,18.92-32.73,37.08-32.76l186.8-.29h0Z"/>
    <g>
      <path class="cls-2" d="M179.7,97.66c-1.65,4.61-.39,10.58-.41,14.99l-.18,42.11c-.02,5.4,3.96,10.46,9.98,10.46l227.65.02c5.31,0,9.54-4.92,9.53-9.51l-.11-44.06c-.01-4.6.74-9.95-.62-13.98l67.9-.09c21.59-.03,38.89,16.26,38.89,38.28l-.09,339.94-134.62.13c-5.67,0-10.52,3.08-10.54,9.21l-.39,122.27-276.06-.1c-19.25,0-36.79-16.23-36.8-35.84l-.27-440.33c2.81-18.51,16.17-33.2,35.05-33.27l71.09-.25v.02ZM198.67,238.95c-16.36-5.53-10.24-3.77-26.2-3.77h-19.91c-11.77,0-21.29,5.59-23.95,17.93l-.05,37.67c1.86,8.44,8.72,17.13,17.93,17.64,13.28.73,25.85.36,39.11.1,9.87-.19,19.19-7.78,19.82-17.74.75-11.77.15-22.86.13-33.99,4.13-7.19,20.27-14.2,12.46-23.36-3.87-4.54-9.25-3.73-13.32.5-1.88,1.95-3.6,4.24-6,5.01h-.02ZM465.93,285.41c7.9,0,12.48-5.73,12.21-12.25s-5.82-10.73-12.73-10.73l-211.75.08c-6.9,0-11.96,5.22-11.87,11.65.07,5.16,4.4,11.16,10.93,11.16l213.22.09h-.01ZM465.81,357.64c7.91,0,12.16-4.88,12.41-11.58.19-5.01-4.11-11.45-10.84-11.45l-328.62.04c-6.95,0-10.99,5.88-11.04,11.48s3.83,10.49,10.24,11.5l327.84.02h.01ZM465.84,429.78c8.18,0,12.75-5.92,12.32-12.44s-5.68-10.7-12.82-10.7l-326.65.15c-6.69,0-10.65,6.16-10.81,11.54s4.4,11.35,10.97,11.35l326.98.1h0ZM332.89,501.95c7.19,0,10.72-7.36,10.18-12.39-.5-4.68-4.55-10.65-10.74-10.65l-192.64-.03c-6.87,0-11.36,4.51-11.98,10.61-.48,4.66,3.2,12.49,9.84,12.48l195.35-.03h-.01Z"/>
      <path class="cls-3" d="M532.25,475.83c0,2.26-.52,4.05-2.68,6.22l-125.11,125.14c-6.56,1.07-12.02.25-17.76.25l.39-122.27c.02-6.13,4.87-9.2,10.54-9.21l134.62-.13h0Z"/>
      <path class="cls-6" d="M465.81,357.64l-327.84-.02c-6.41-1.01-10.29-5.75-10.24-11.5s4.09-11.48,11.04-11.48l328.62-.04c6.73,0,11.03,6.45,10.84,11.45-.25,6.7-4.5,11.58-12.41,11.58h-.01Z"/>
      <path class="cls-8" d="M465.84,429.78l-326.98-.1c-6.57,0-11.13-6.07-10.97-11.35s4.12-11.54,10.81-11.54l326.65-.15c7.14,0,12.39,4.08,12.82,10.7s-4.14,12.44-12.32,12.44h0Z"/>
      <path class="cls-6" d="M465.93,285.41l-213.22-.09c-6.53,0-10.86-6-10.93-11.16-.09-6.43,4.97-11.65,11.87-11.65l211.75-.08c6.92,0,12.46,4.18,12.73,10.73s-4.3,12.25-12.21,12.25h.01Z"/>
      <path class="cls-7" d="M332.89,501.95l-195.35.03c-6.64,0-10.31-7.83-9.84-12.48.62-6.1,5.11-10.61,11.98-10.61l192.64.03c6.19,0,10.24,5.97,10.74,10.65.54,5.03-2.99,12.38-10.18,12.39h.01Z"/>
      <path class="cls-1" d="M198.67,238.95c-4.27,5.55-9.15,9.98-14.08,14.74l-22.78,22.01c-4.45-2.03-9.53-12.74-14.12-11.58-3.49.89-7.88,5.52-7.95,9.23,6.12,7.64,13.76,14.83,20.71,21.39,1.89,1.78,4.3-.36,5.57-1.57l20.95-20.02c5.38-5.14,10.57-9.94,15.73-15.22.82-.84,2.1-.84,2.83-1.15.02,11.13.62,22.22-.13,33.99-.63,9.96-9.94,17.54-19.82,17.74-13.26.26-25.84.63-39.11-.1-9.2-.51-16.06-9.2-17.93-17.64l.05-37.67c2.66-12.34,12.19-17.93,23.95-17.93h19.91c15.97,0,9.85-1.76,26.2,3.77h.02Z"/>
      <path class="cls-10" d="M205.54,256.8c-.73.31-2.01.31-2.83,1.15-5.16,5.28-10.35,10.08-15.73,15.22l-20.95,20.02c-1.27,1.22-3.68,3.36-5.57,1.57-6.95-6.55-14.59-13.75-20.71-21.39.06-3.71,4.46-8.35,7.95-9.23,4.58-1.17,9.67,9.55,14.12,11.58l22.78-22.01c4.93-4.77,9.81-9.2,14.08-14.74,2.4-.77,4.13-3.06,6-5.01,4.07-4.23,9.45-5.05,13.32-.5,7.81,9.16-8.33,16.17-12.46,23.36v-.02Z"/>
      <g>
        <path class="cls-5" d="M357.74,47.64c1.48,9.14-1.61,16.16,5.41,17.5,6.51,1.24,12.9,1.82,19.56,1.98,19.53.47,36.49,11.67,42.84,30.57,1.35,4.02.61,9.37.62,13.98l.11,44.06c.01,4.59-4.22,9.51-9.53,9.51l-227.65-.02c-6.02,0-10.01-5.06-9.98-10.46l.18-42.11c.02-4.41-1.24-10.38.41-14.99,5.45-15.23,17.81-27.81,34.39-29.46l24.45-2.43c2.62-.26,6.34-.89,7.5-3.48,2.02-4.51,1.29-9.44,1.37-14.64,2.78-17.39,13.56-32.76,27.79-40.49,17.76-9.66,36.39-9.27,53.66-.52,15.62,7.91,25.98,23.18,28.87,41.01h0ZM325.18,54.51c0-12.39-10.05-22.44-22.44-22.44s-22.44,10.05-22.44,22.44,10.05,22.44,22.44,22.44,22.44-10.05,22.44-22.44Z"/>
        <circle class="cls-9" cx="302.74" cy="54.51" r="22.44"/>
      </g>
    </g>
  </g>
  <g>
    <path class="cls-4" d="M79.23,751.19h-15.42s0-41.48,0-41.48c0-1.77.02-3.51.05-5.22.03-1.71.08-3.63.15-5.75h-.39c-.35,1.06-.68,2.02-.97,2.88-.29.85-.56,1.67-.82,2.44l-16.24,47.13h-12.76s-16.53-46.65-16.53-46.65c-.32-.93-.59-1.77-.8-2.51s-.54-1.84-.99-3.29h-.44c.1,2.84.16,5.37.19,7.59.03,2.22.05,4.4.05,6.53v38.33s-14.31,0-14.31,0v-69.32s23.11,0,23.11,0l14.16,41.09c.52,1.45.93,2.73,1.26,3.84.32,1.11.73,2.49,1.21,4.13h.29c.58-1.74,1.04-3.11,1.38-4.11s.8-2.32,1.38-3.96l14.16-40.99h22.28s0,69.32,0,69.32h0Z"/>
    <path class="cls-4" d="M128.73,679.25l2.47,60.64c.22,5.47-.65,10.11-2.58,13.93s-5.22,6.7-9.85,8.66c-2.16.92-4.38,1.55-6.65,1.89-2.26.35-4.49.3-6.67-.14l2.61-11.81c1.26.27,2.25.37,2.95.33.69-.05,1.37-.21,2.02-.49,1.34-.57,2.31-1.34,2.93-2.32s.95-2.25.98-3.81l.14-6.62-37.85-39.3,15.22-6.45,20.08,23.36c.75.88,1.43,1.73,2.04,2.58.61.84,1.28,1.81,2.02,2.9l.17-.07c-.25-1.26-.43-2.38-.54-3.37s-.23-2.1-.36-3.33l-3.47-30.5,14.34-6.07h0Z"/>
    <path class="cls-4" d="M139.75,751.19v-69.32h24.56c12.31,0,21.54,2.81,27.7,8.44,6.15,5.62,9.23,14.08,9.23,25.35s-3.36,19.42-10.08,25.86c-6.72,6.45-15.67,9.67-26.85,9.67h-24.56,0ZM155.36,694.82v43.41h7.73c6.77,0,12.08-2.01,15.93-6.02,3.85-4.01,5.78-9.47,5.78-16.36s-1.91-11.68-5.73-15.42c-3.82-3.74-9.18-5.61-16.07-5.61h-7.64Z"/>
    <path class="cls-4" d="M251.46,751.19h-14.45v-5.56h-.19c-1.84,2.26-3.99,3.95-6.45,5.08-2.47,1.13-5.23,1.69-8.29,1.69-4.19,0-7.82-1.3-10.88-3.89s-4.59-6.16-4.59-10.71,1.47-8.11,4.4-11.09c2.93-2.98,7.25-4.78,12.96-5.39l13.15-1.4v-1.5c0-2.42-.77-4.24-2.3-5.46-1.53-1.22-3.44-1.84-5.73-1.84s-4.3.53-6.04,1.6-3.32,2.64-4.74,4.74l-10.2-6.09c1.77-2.83,4.61-5.36,8.51-7.57s8.51-3.31,13.83-3.31c6.83,0,12.04,1.76,15.64,5.27,3.59,3.51,5.39,8.8,5.39,15.86v29.58h-.02ZM237.1,731.08v-1.88l-9.86.97c-2.29.26-3.96.89-5,1.91-1.05,1.01-1.57,2.39-1.57,4.13,0,1.55.58,2.83,1.74,3.84,1.16,1.02,2.63,1.52,4.4,1.52,3.03,0,5.5-.99,7.42-2.97s2.88-4.49,2.88-7.52h-.01Z"/>
    <path class="cls-4" d="M270.02,695.21c-2.64,0-4.8-.81-6.48-2.44-1.68-1.63-2.51-3.65-2.51-6.07s.84-4.56,2.51-6.14c1.68-1.58,3.83-2.37,6.48-2.37s4.84.79,6.5,2.37,2.49,3.63,2.49,6.14-.83,4.56-2.49,6.14-3.83,2.37-6.5,2.37ZM277.66,751.19h-15.28v-49.5h15.28v49.5Z"/>
    <path class="cls-4" d="M289.75,751.19v-73.28h15.27v73.28h-15.27Z"/>
    <path class="cls-4" d="M366.32,701.69l-21.37,56.8c-1.93,5.12-4.54,9.06-7.81,11.82s-7.42,4.13-12.45,4.13c-2.35,0-4.64-.28-6.86-.85-2.22-.56-4.25-1.47-6.09-2.73l7.01-9.86c1.06.74,1.92,1.22,2.59,1.45.66.22,1.34.34,2.05.34,1.45,0,2.65-.33,3.6-.99s1.75-1.7,2.39-3.12l2.71-6.04-19.53-50.95h16.53l9.38,29.34c.35,1.1.64,2.15.87,3.17.23,1.01.47,2.17.73,3.46h.19c.26-1.26.53-2.36.82-3.31s.61-2.02.97-3.21l8.7-29.44h15.57,0Z"/>
    <path class="cls-4" d="M407.51,692.6h-18.56v56.61h-15.66v-56.61h-18.56v-12.71h52.79v12.71h-.01Z"/>
    <path class="cls-4" d="M446.14,748h-14.45v-5.56h-.19c-1.84,2.26-3.99,3.95-6.45,5.08-2.47,1.13-5.23,1.69-8.29,1.69-4.19,0-7.81-1.3-10.88-3.89-3.06-2.59-4.59-6.16-4.59-10.71s1.47-8.11,4.4-11.09c2.93-2.98,7.25-4.78,12.96-5.39l13.15-1.4v-1.5c0-2.42-.77-4.24-2.3-5.46-1.53-1.22-3.44-1.84-5.73-1.84s-4.3.53-6.04,1.6-3.32,2.64-4.74,4.74l-10.2-6.09c1.77-2.83,4.61-5.36,8.51-7.57,3.9-2.21,8.51-3.31,13.83-3.31,6.83,0,12.04,1.76,15.64,5.27,3.59,3.51,5.39,8.8,5.39,15.86v29.58h-.02ZM431.78,727.89v-1.88l-9.86.97c-2.29.26-3.96.89-5,1.91-1.05,1.01-1.57,2.39-1.57,4.13,0,1.55.58,2.83,1.74,3.84,1.16,1.02,2.63,1.52,4.4,1.52,3.03,0,5.5-.99,7.42-2.97s2.88-4.49,2.88-7.52h-.01Z"/>
    <path class="cls-4" d="M454.02,741.67l7.2-9.28c2.51,2.35,4.83,3.96,6.96,4.83s4.3,1.3,6.53,1.3,3.92-.38,5.1-1.14,1.76-1.88,1.76-3.36c0-1.13-.56-2.08-1.69-2.85s-2.95-1.32-5.46-1.64c-6.57-.97-11.26-2.77-14.07-5.41-2.8-2.64-4.21-6.09-4.21-10.34,0-4.67,1.72-8.59,5.15-11.75,3.43-3.16,8.08-4.74,13.95-4.74,3.48,0,6.77.48,9.86,1.45s5.74,2.43,7.93,4.4l-7.4,8.85c-1.9-1.42-3.68-2.46-5.34-3.12-1.66-.66-3.39-.99-5.2-.99-2.03,0-3.5.36-4.42,1.09-.92.72-1.38,1.75-1.38,3.07,0,1.13.58,2.08,1.74,2.85s3.21,1.32,6.14,1.64c5.8.68,10.21,2.31,13.22,4.91,3.01,2.59,4.52,6.28,4.52,11.04,0,5.09-1.93,9.15-5.78,12.18-3.85,3.03-8.74,4.54-14.67,4.54-4.03,0-7.83-.63-11.41-1.89-3.58-1.26-6.59-3.14-9.04-5.66v.02Z"/>
    <path class="cls-4" d="M553.16,748h-18.51l-15.61-23.59h-.19v23.59h-15.28v-73.28h15.28v45.73h.19l15.42-21.95h17.35l-17.26,23.25,18.61,26.25h0Z"/>
    <path class="cls-4" d="M604.35,727.6h-32.29c.23,3.19,1.33,5.73,3.31,7.61,1.98,1.89,4.58,2.83,7.81,2.83,1.96,0,3.76-.48,5.39-1.45,1.63-.97,3.08-2.42,4.37-4.35l11.21,6.38c-2.84,3.67-6.01,6.36-9.52,8.05s-7.41,2.54-11.7,2.54c-8.19,0-14.57-2.22-19.14-6.65-4.58-4.43-6.86-10.61-6.86-18.54s2.38-14.73,7.15-19.53c4.77-4.8,10.63-7.2,17.6-7.2s12.8,2.14,16.75,6.43,5.92,10.73,5.92,19.34v4.54h0ZM590.19,717.93c0-3.38-.72-5.92-2.15-7.61-1.43-1.69-3.36-2.54-5.78-2.54-2.9,0-5.25.97-7.03,2.9-1.79,1.93-2.88,4.35-3.26,7.25h18.22Z"/>
    <path class="cls-4" d="M645.39,711.84c-1.06-.35-2.11-.62-3.14-.8s-2.05-.27-3.05-.27c-3.03,0-5.49,1.22-7.4,3.65-1.9,2.43-2.85,5.75-2.85,9.93v23.64h-15.28v-49.5h15.28v8.8h.19c1.19-3.22,2.88-5.64,5.08-7.25,2.19-1.61,4.82-2.42,7.88-2.42,1.19,0,2.33.09,3.41.27,1.08.18,2.15.48,3.21.89l-3.34,13.05h.01Z"/>
  </g>
</svg>